<?xml version="1.0" encoding="UTF-8"?>
<svg width="32px" height="20px" viewBox="0 0 32 20" version="1.1" xmlns="http://www.w3.org/2000/svg" xmlns:xlink="http://www.w3.org/1999/xlink">
    <!-- Generator: Sketch 51 (57462) - http://www.bohemiancoding.com/sketch -->
    <title>Assets/menu</title>
    <desc>Created with Sketch.</desc>
    <defs></defs>
    <g id="Assets/menu" stroke="none" stroke-width="1" fill="none" fill-rule="evenodd">
        <path d="M24.00032,3.20064 L1.60032,3.20064 C0.71712,3.20064 0.00032,2.48544 0.00032,1.60064 C0.00032,0.71584 0.71712,0.00064 1.60032,0.00064 L24.00032,0.00064 C24.88352,0.00064 25.60032,0.71584 25.60032,1.60064 C25.60032,2.48544 24.88352,3.20064 24.00032,3.20064 Z M30.40032,11.20064 L8.00032,11.20064 C7.11712,11.20064 6.40032,10.48544 6.40032,9.60064 C6.40032,8.71584 7.11712,8.00064 8.00032,8.00064 L30.40032,8.00064 C31.28352,8.00064 32.00032,8.71584 32.00032,9.60064 C32.00032,10.48544 31.28352,11.20064 30.40032,11.20064 Z M24.00032,19.20064 L1.60032,19.20064 C0.71712,19.20064 0.00032,18.48544 0.00032,17.60064 C0.00032,16.71584 0.71712,16.00064 1.60032,16.00064 L24.00032,16.00064 C24.88352,16.00064 25.60032,16.71584 25.60032,17.60064 C25.60032,18.48544 24.88352,19.20064 24.00032,19.20064 Z" fill="#F7F9FA"></path>
    </g>
</svg>